<svg width="244" height="245" viewBox="0 0 244 245" fill="none" xmlns="http://www.w3.org/2000/svg">
<path d="M106.041 228.029C106.214 228.763 106.467 229.43 106.801 230.028C107.128 230.634 107.535 231.16 108.025 231.608C108.507 232.055 109.068 232.413 109.708 232.682C110.348 232.95 111.061 233.117 111.847 233.184C113.135 233.294 114.334 233.061 115.445 232.486C116.556 231.91 117.478 231.001 118.211 229.759C118.944 228.517 119.391 226.955 119.551 225.073C119.711 223.19 119.531 221.575 119.012 220.226C118.492 218.878 117.723 217.825 116.704 217.068C115.685 216.311 114.503 215.876 113.158 215.761C111.913 215.655 110.793 215.827 109.8 216.277C108.799 216.734 107.991 217.428 107.377 218.359C106.756 219.297 106.389 220.431 106.275 221.762L105.483 221.523L112.022 222.08L111.823 224.415L103.543 223.71L103.742 221.375C103.895 219.585 104.409 218.06 105.286 216.802C106.156 215.543 107.291 214.606 108.69 213.991C110.082 213.382 111.641 213.152 113.368 213.299C115.293 213.462 116.946 214.059 118.326 215.089C119.7 216.118 120.723 217.503 121.394 219.242C122.059 220.981 122.294 222.997 122.098 225.29C121.952 227.009 121.591 228.536 121.014 229.87C120.429 231.21 119.671 232.328 118.739 233.226C117.808 234.123 116.739 234.78 115.535 235.198C114.33 235.616 113.031 235.766 111.637 235.647C110.491 235.549 109.437 235.285 108.475 234.854C107.507 234.429 106.66 233.869 105.935 233.173C105.202 232.483 104.611 231.681 104.162 230.766C103.712 229.858 103.432 228.869 103.324 227.797L106.041 228.029Z" fill="black"/>
<path d="M98.4864 210.593C100.012 210.99 101.241 211.67 102.172 212.631C103.094 213.598 103.696 214.768 103.977 216.14C104.25 217.517 104.175 219.017 103.753 220.639C103.33 222.261 102.663 223.614 101.749 224.697C100.828 225.785 99.7436 226.538 98.4975 226.955C97.2427 227.376 95.9006 227.401 94.4709 227.029C93.6462 226.814 92.8675 226.465 92.1349 225.98C91.4024 225.496 90.7867 224.859 90.288 224.068C89.7874 223.285 89.4728 222.337 89.3441 221.225C89.2154 220.112 89.3434 218.817 89.7282 217.339L89.9967 216.308L102.203 219.487L101.656 221.59L91.9233 219.056C91.6907 219.949 91.6618 220.793 91.8367 221.587C92.0047 222.38 92.3623 223.064 92.9097 223.639C93.4502 224.213 94.1603 224.614 95.04 224.843C96.0092 225.096 96.9103 225.073 97.7435 224.777C98.568 224.485 99.2687 224.007 99.8453 223.342C100.422 222.678 100.824 221.909 101.051 221.036L101.416 219.634C101.728 218.438 101.785 217.371 101.59 216.432C101.385 215.498 100.968 214.718 100.339 214.091C99.7072 213.472 98.9001 213.034 97.9173 212.778C97.2781 212.612 96.6775 212.551 96.1155 212.596C95.5448 212.645 95.023 212.803 94.5501 213.069C94.0755 213.341 93.6635 213.726 93.3141 214.222L91.1353 212.95C91.5903 212.217 92.1887 211.624 92.9304 211.172C93.6703 210.726 94.5137 210.446 95.4605 210.333C96.4056 210.227 97.4142 210.314 98.4864 210.593Z" fill="black"/>
<path d="M73.2932 218.903L74.1708 216.962L81.8981 220.455L81.0205 222.396L73.2932 218.903ZM77.1535 224.951L74.8624 223.915L81.2867 209.703C81.5792 209.056 81.7048 208.528 81.6634 208.12C81.6126 207.715 81.4632 207.39 81.2152 207.146C80.9579 206.905 80.6609 206.708 80.3244 206.556C80.072 206.442 79.859 206.361 79.6855 206.314C79.5091 206.273 79.368 206.24 79.2621 206.216L79.7264 203.947C79.9081 203.959 80.1512 203.999 80.4558 204.067C80.7634 204.128 81.1307 204.255 81.5579 204.448C82.205 204.74 82.7764 205.166 83.2719 205.725C83.7609 206.281 84.0806 206.937 84.2308 207.69C84.3747 208.441 84.2506 209.25 83.8586 210.117L77.1535 224.951Z" fill="black"/>
<path d="M43.793 197.142L45.2673 195.604L51.3896 201.471L49.9153 203.01L43.793 197.142ZM45.4182 204.13L43.603 202.39L54.3949 191.13C54.8864 190.617 55.1806 190.162 55.2776 189.763C55.3646 189.364 55.3319 189.008 55.1796 188.695C55.0172 188.382 54.8027 188.098 54.5361 187.842C54.3361 187.65 54.1622 187.503 54.0144 187.401C53.8616 187.304 53.7394 187.226 53.6477 187.168L54.8413 185.183C55.0086 185.255 55.2246 185.374 55.4893 185.539C55.7589 185.699 56.063 185.941 56.4014 186.265C56.9141 186.757 57.311 187.349 57.5919 188.041C57.8677 188.728 57.9509 189.452 57.8415 190.213C57.7269 190.969 57.3404 191.69 56.6818 192.378L45.4182 204.13Z" fill="black"/>
<path d="M48.3071 176.505C49.1856 177.692 49.6737 178.943 49.7714 180.258C49.8649 181.567 49.5893 182.849 48.9445 184.103C48.2955 185.351 47.2915 186.478 45.9325 187.483C44.562 188.497 43.182 189.133 41.7925 189.392C40.3987 189.646 39.0898 189.536 37.8656 189.064C36.6373 188.585 35.5839 187.752 34.7054 186.564C33.827 185.377 33.341 184.128 33.2475 182.819C33.1498 181.505 33.4282 180.221 34.083 178.968C34.7334 177.71 35.7439 176.574 37.1144 175.56C38.4734 174.555 39.8469 173.928 41.235 173.679C42.6188 173.424 43.9249 173.536 45.1533 174.014C46.3774 174.487 47.4287 175.317 48.3071 176.505ZM46.4913 177.848C45.824 176.945 45.0437 176.374 44.1504 176.134C43.2571 175.893 42.3302 175.912 41.3695 176.19C40.4088 176.467 39.4888 176.931 38.6094 177.582C37.73 178.232 37.0141 178.978 36.4615 179.82C35.909 180.661 35.614 181.546 35.5766 182.475C35.5391 183.404 35.854 184.319 36.5213 185.221C37.1886 186.124 37.9717 186.693 38.8707 186.929C39.7697 187.165 40.7024 187.142 41.6688 186.86C42.6352 186.578 43.5581 186.112 44.4375 185.462C45.3168 184.811 46.0299 184.068 46.5767 183.23C47.1235 182.393 47.4128 181.512 47.4446 180.588C47.4763 179.663 47.1586 178.75 46.4913 177.848Z" fill="black"/>
<path d="M17.0778 149.459L19.1151 148.835L21.5983 156.943L19.561 157.567L17.0778 149.459ZM15.0887 156.352L14.3525 153.948L29.2654 149.381C29.9445 149.173 30.4237 148.919 30.7029 148.618C30.9733 148.312 31.1183 147.985 31.1381 147.638C31.149 147.285 31.1004 146.932 30.9923 146.579C30.9111 146.314 30.831 146.101 30.7519 145.94C30.6659 145.78 30.5972 145.653 30.5456 145.557L32.5554 144.407C32.6664 144.551 32.7972 144.76 32.9477 145.033C33.1051 145.304 33.2524 145.664 33.3896 146.112C33.5976 146.791 33.6554 147.502 33.5631 148.243C33.4686 148.978 33.1881 149.65 32.7215 150.261C32.2529 150.865 31.5635 151.307 30.6535 151.585L15.0887 156.352Z" fill="black"/>
<path d="M21.4952 138.95L31.2592 137.7L31.5785 140.194L9.93708 142.965L9.61773 140.471L17.5642 139.454L17.5371 139.242C16.6501 138.969 15.9113 138.484 15.3207 137.786C14.7222 137.082 14.3413 136.093 14.1781 134.818C14.0364 133.712 14.1343 132.715 14.4717 131.826C14.802 130.939 15.3922 130.209 16.2424 129.634C17.0845 129.054 18.2031 128.674 19.5979 128.496L29.9114 127.175L30.2308 129.669L20.0863 130.968C18.7972 131.133 17.8432 131.595 17.2244 132.355C16.5977 133.108 16.3596 134.073 16.5103 135.249C16.6149 136.067 16.8814 136.777 17.3096 137.381C17.7368 137.978 18.3055 138.421 19.0155 138.709C19.7246 138.991 20.5512 139.071 21.4952 138.95Z" fill="black"/>
<path d="M30.4418 117.679C30.3749 119.254 29.9695 120.598 29.2255 121.711C28.4748 122.817 27.4584 123.651 26.1762 124.215C24.8872 124.772 23.4054 125.015 21.7307 124.943C20.0561 124.872 18.5931 124.505 17.3418 123.84C16.0837 123.168 15.1196 122.267 14.4497 121.137C13.7729 119.999 13.4659 118.692 13.5286 117.216C13.5648 116.365 13.7424 115.53 14.0615 114.712C14.3806 113.894 14.8739 113.157 15.5415 112.503C16.202 111.849 17.0623 111.342 18.1226 110.982C19.1829 110.621 20.4758 110.474 22.0014 110.539L23.0658 110.584L22.5305 123.186L20.3591 123.094L20.786 113.046C19.8635 113.007 19.0326 113.156 18.2931 113.495C17.5539 113.826 16.9607 114.32 16.5134 114.976C16.0664 115.625 15.8237 116.404 15.7851 117.312C15.7426 118.313 15.9542 119.189 16.4198 119.941C16.8787 120.685 17.4937 121.27 18.2647 121.693C19.0358 122.117 19.8719 122.348 20.7731 122.386L22.2206 122.448C23.4553 122.5 24.511 122.332 25.3877 121.943C26.2576 121.546 26.9323 120.974 27.4119 120.227C27.8844 119.479 28.1422 118.598 28.1853 117.583C28.2134 116.923 28.1464 116.323 27.9845 115.783C27.8159 115.236 27.5518 114.759 27.1923 114.353C26.8257 113.946 26.3631 113.624 25.8044 113.387L26.5887 110.989C27.401 111.28 28.1065 111.74 28.7053 112.369C29.2971 112.999 29.7479 113.764 30.058 114.666C30.3609 115.568 30.4888 116.572 30.4418 117.679Z" fill="black"/>
<path d="M27.1088 77.3439L26.8598 79.6779C26.4575 79.6693 26.04 79.7273 25.6072 79.8519C25.1705 79.9673 24.756 80.1988 24.3638 80.5463C23.9715 80.8939 23.639 81.4071 23.3663 82.0858C22.9929 83.0151 22.8959 83.8755 23.0753 84.6671C23.2508 85.4494 23.6648 85.9717 24.3172 86.2338C24.8971 86.4669 25.4399 86.44 25.9455 86.1533C26.451 85.8666 26.9959 85.3202 27.5801 84.5139L29.0394 82.4826C29.9144 81.2574 30.825 80.4484 31.7713 80.0555C32.7109 79.6601 33.7113 79.6755 34.7723 80.1018C35.6422 80.4514 36.3192 81.0143 36.8033 81.7905C37.29 82.5602 37.5524 83.4693 37.5903 84.5179C37.6282 85.5664 37.4102 86.6805 36.9361 87.8601C36.3138 89.4088 35.4627 90.5556 34.3827 91.3003C33.3027 92.0451 32.0625 92.2931 30.6623 92.0442L30.9985 89.6075C31.9004 89.725 32.6735 89.5726 33.3178 89.1502C33.9647 88.7213 34.4802 88.029 34.8641 87.0735C35.3011 85.9861 35.4173 85.0301 35.2129 84.2055C35.0045 83.3717 34.5741 82.8236 33.9217 82.5615C33.3945 82.3496 32.8788 82.3567 32.3746 82.5828C31.8639 82.8062 31.3659 83.2644 30.8808 83.9573L29.2708 86.2496C28.3826 87.5077 27.4614 88.3239 26.5072 88.6983C25.5492 89.0634 24.5462 89.0355 23.4984 88.6144C22.6417 88.2702 21.9805 87.7251 21.5148 86.9792C21.0517 86.2267 20.8005 85.3565 20.7612 84.3686C20.7245 83.3742 20.9207 82.3431 21.3497 81.2755C21.9535 79.773 22.757 78.7257 23.7603 78.1338C24.7662 77.5354 25.8823 77.272 27.1088 77.3439Z" fill="black"/>
<path d="M33.1552 72.0487L41.5375 77.2098L40.2193 79.3508L21.6404 67.9113L22.9586 65.7704L29.7806 69.9708L29.8923 69.7894C29.3737 69.0197 29.1038 68.1779 29.0826 67.2641C29.0591 66.3405 29.3843 65.3314 30.0584 64.2367C30.643 63.2872 31.3455 62.5729 32.1659 62.0939C32.9803 61.6111 33.8986 61.4134 34.9208 61.5006C35.9407 61.5781 37.0494 61.9855 38.2468 62.7228L47.1008 68.1744L45.7826 70.3154L37.0737 64.9531C35.967 64.2717 34.9344 64.032 33.9758 64.2342C33.015 64.4266 32.2236 65.0278 31.6017 66.0377C31.1698 66.7393 30.9307 67.4595 30.8844 68.1984C30.8419 68.9312 31.0062 69.6329 31.3773 70.3034C31.7522 70.9679 32.3448 71.5497 33.1552 72.0487Z" fill="black"/>
<path d="M53.1932 61.4442C52.2172 62.5531 51.0969 63.2938 49.8324 63.6663C48.5726 64.0335 47.2617 64.0341 45.8998 63.668C44.5426 63.2966 43.2295 62.5525 41.9606 61.4358C40.6811 60.3096 39.7682 59.0947 39.2221 57.7909C38.6807 56.4818 38.5121 55.1792 38.7163 53.8829C38.9252 52.5813 39.5176 51.3761 40.4936 50.2671C41.4696 49.1582 42.5875 48.4201 43.8473 48.0529C45.1118 47.6804 46.4254 47.6822 47.7879 48.0583C49.1552 48.429 50.4786 49.1775 51.7581 50.3036C53.027 51.4204 53.9295 52.631 54.4656 53.9354C55.0064 55.2345 55.1723 56.5348 54.9634 57.8364C54.7593 59.1326 54.1692 60.3352 53.1932 61.4442ZM51.4978 59.952C52.2392 59.1096 52.6332 58.2265 52.68 57.3026C52.7268 56.3787 52.5132 55.4765 52.0394 54.5958C51.5656 53.7152 50.9181 52.9136 50.0971 52.191C49.276 51.4684 48.396 50.9257 47.457 50.5628C46.518 50.2 45.5906 50.0981 44.6748 50.2571C43.759 50.4162 42.9304 50.9169 42.189 51.7593C41.4476 52.6016 41.0562 53.4871 41.0148 54.4157C40.9734 55.3443 41.1922 56.2512 41.6714 57.1365C42.1505 58.0219 42.8007 58.8258 43.6217 59.5484C44.4427 60.271 45.3201 60.8114 46.2538 61.1696C47.1875 61.5277 48.1095 61.6249 49.02 61.4612C49.9305 61.2974 50.7564 60.7944 51.4978 59.952Z" fill="black"/>
<path d="M59.7853 53.9884L45.6262 44.389L47.6818 42.7293L58.3043 50.2548L58.4369 50.1478L53.285 38.205L55.3738 36.5184L65.9031 44.0644L66.0358 43.9573L60.9438 32.021L62.9994 30.3612L69.4002 46.2248L67.4773 47.7775L56.7949 40.2456L56.5959 40.4062L61.7083 52.4357L59.7853 53.9884Z" fill="black"/>
<path d="M68.194 21.684L75.6559 35.4784L73.4982 36.6838L65.6642 23.0972L68.194 21.684ZM77.6529 41.587C77.194 41.8433 76.7085 41.899 76.1963 41.7539C75.6841 41.6089 75.2999 41.3069 75.0436 40.8481C74.7872 40.3893 74.7316 39.9038 74.8766 39.3916C75.0217 38.8794 75.3236 38.4951 75.7824 38.2388C76.2413 37.9825 76.7268 37.9268 77.239 38.0719C77.7512 38.2169 78.1354 38.5189 78.3918 38.9777C78.5615 39.2815 78.6398 39.6038 78.6269 39.9446C78.6201 40.282 78.5328 40.5992 78.3652 40.8962C78.2003 41.1836 77.9629 41.4138 77.6529 41.587Z" fill="black"/>
<path d="M106.506 31.66C104.98 31.9217 103.495 31.8807 102.053 31.5372C100.617 31.1924 99.3017 30.6002 98.1056 29.7604C96.9154 28.9124 95.9151 27.8697 95.1049 26.6323C94.3016 25.3937 93.772 24.0073 93.5162 22.4731C93.2603 20.9389 93.3047 19.454 93.6495 18.0186C94.0012 16.5819 94.5976 15.2691 95.4386 14.08C96.2784 12.884 97.3175 11.8843 98.5561 11.081C99.7947 10.2778 101.177 9.74532 102.703 9.48366C104.236 9.22079 105.72 9.26174 107.156 9.60649C108.598 9.95004 109.911 10.5464 111.094 11.3956C112.283 12.2366 113.28 13.2763 114.083 14.5149C114.886 15.7535 115.423 17.1388 115.693 18.6706C115.962 20.2024 115.925 21.686 115.58 23.1215C115.235 24.5569 114.643 25.8727 113.803 27.0687C112.962 28.2578 111.919 29.2546 110.674 30.059C109.428 30.8635 108.039 31.3972 106.506 31.66Z" fill="black"/>
<path d="M146.893 17.7068C146.783 16.9602 146.587 16.2744 146.305 15.6496C146.032 15.019 145.67 14.4598 145.22 13.9719C144.778 13.4853 144.249 13.0812 143.634 12.7595C143.019 12.4379 142.323 12.2105 141.546 12.0773C140.272 11.8588 139.057 11.9892 137.901 12.4683C136.745 12.9475 135.75 13.7748 134.914 14.9502C134.078 16.1256 133.501 17.6443 133.181 19.5063C132.862 21.3683 132.904 22.9933 133.308 24.3811C133.711 25.769 134.388 26.8831 135.339 27.7236C136.291 28.564 137.431 29.0983 138.761 29.3263C139.993 29.5376 141.123 29.4611 142.151 29.097C143.188 28.727 144.051 28.104 144.742 27.228C145.441 26.3462 145.903 25.2473 146.128 23.9313L146.898 24.2361L140.43 23.1271L140.826 20.817L149.016 22.2214L148.62 24.5314C148.316 26.3024 147.674 27.7776 146.693 28.957C145.72 30.1376 144.51 30.975 143.063 31.4691C141.625 31.9575 140.052 32.0552 138.344 31.7624C136.44 31.4359 134.843 30.701 133.555 29.5577C132.274 28.4157 131.372 26.9496 130.85 25.1595C130.335 23.3707 130.273 21.3422 130.661 19.0742C130.953 17.3732 131.443 15.8827 132.131 14.6027C132.827 13.3169 133.677 12.2665 134.682 11.4515C135.686 10.6365 136.806 10.0719 138.042 9.75777C139.277 9.44361 140.585 9.40476 141.964 9.64121C143.098 9.83566 144.125 10.1884 145.046 10.6995C145.976 11.2047 146.772 11.8348 147.435 12.5899C148.107 13.3391 148.628 14.1887 148.998 15.1385C149.37 16.0813 149.564 17.0911 149.581 18.1677L146.893 17.7068Z" fill="black"/>
<path d="M152.942 35.7205C151.455 35.1952 150.289 34.414 149.443 33.3768C148.606 32.3352 148.105 31.1189 147.941 29.7278C147.786 28.3323 147.988 26.8444 148.547 25.264C149.105 23.6836 149.885 22.3924 150.887 21.3905C151.898 20.3843 153.042 19.7264 154.319 19.4167C155.605 19.1028 156.944 19.1919 158.337 19.684C159.141 19.968 159.887 20.3823 160.576 20.927C161.264 21.4717 161.824 22.1589 162.254 22.9887C162.686 23.8119 162.919 24.7831 162.953 25.9023C162.987 27.0216 162.75 28.3011 162.241 29.7409L161.886 30.7454L149.993 26.5433L150.717 24.4941L160.199 27.8444C160.507 26.9739 160.607 26.1356 160.5 25.3295C160.4 24.5258 160.102 23.814 159.605 23.1941C159.115 22.5766 158.442 22.1164 157.585 21.8135C156.64 21.4799 155.741 21.4257 154.885 21.6507C154.039 21.8714 153.3 22.2884 152.669 22.9016C152.038 23.5148 151.573 24.2466 151.272 25.0971L150.789 26.4632C150.378 27.6284 150.23 28.6871 150.345 29.6393C150.47 30.5873 150.819 31.3999 151.393 32.0773C151.97 32.7481 152.737 33.2526 153.695 33.5909C154.317 33.811 154.911 33.9227 155.474 33.926C156.047 33.925 156.58 33.8121 157.074 33.5874C157.57 33.3559 158.013 33.0078 158.404 32.543L160.467 33.9951C159.951 34.6867 159.305 35.2266 158.527 35.6148C157.752 35.9963 156.888 36.2032 155.935 36.2356C154.984 36.2613 153.987 36.0896 152.942 35.7205Z" fill="black"/>
<path d="M178.749 29.5762L177.71 31.4363L170.307 27.3006L171.346 25.4405L178.749 29.5762ZM175.416 23.2233L177.611 24.4494L170.004 38.0655C169.658 38.6855 169.488 39.2008 169.495 39.6113C169.511 40.019 169.632 40.3552 169.859 40.62C170.095 40.882 170.374 41.103 170.696 41.2831C170.938 41.4182 171.143 41.5167 171.312 41.5784C171.485 41.634 171.623 41.6785 171.726 41.7119L171.071 43.933C170.891 43.9057 170.652 43.8454 170.354 43.7523C170.053 43.6653 169.698 43.5076 169.289 43.279C168.668 42.9326 168.135 42.4598 167.689 41.8607C167.249 41.265 166.986 40.5853 166.9 39.8214C166.821 39.061 167.013 38.2654 167.477 37.4346L175.416 23.2233Z" fill="black"/>
<path d="M206.298 53.7612L204.698 55.1689L199.096 48.8031L200.695 47.3954L206.298 53.7612ZM205.271 46.6606L206.932 48.5479L195.224 58.8522C194.691 59.3215 194.359 59.7507 194.229 60.1399C194.108 60.5298 194.111 60.8872 194.236 61.2122C194.371 61.5379 194.561 61.8393 194.805 62.1166C194.988 62.3245 195.148 62.4857 195.287 62.6002C195.431 62.7101 195.546 62.7979 195.633 62.8638L194.275 64.7398C194.114 64.6541 193.909 64.5177 193.66 64.3307C193.404 64.1484 193.122 63.8813 192.812 63.5294C192.343 62.9963 191.998 62.3729 191.777 61.6593C191.56 60.951 191.539 60.2225 191.712 59.4737C191.891 58.7302 192.337 58.0441 193.051 57.4153L205.271 46.6606Z" fill="black"/>
<path d="M200.05 73.9413C199.275 72.6834 198.895 71.3953 198.909 70.0772C198.927 68.7651 199.31 67.5115 200.059 66.3165C200.812 65.1275 201.907 64.0899 203.347 63.2036C204.798 62.3099 206.227 61.7928 207.634 61.6524C209.044 61.5181 210.339 61.7383 211.519 62.3131C212.702 62.894 213.681 63.8134 214.456 65.0713C215.23 66.3292 215.608 67.6143 215.591 68.9264C215.577 70.2445 215.19 71.5 214.432 72.6927C213.677 73.8914 212.574 74.9377 211.122 75.8314C209.683 76.7176 208.261 77.2261 206.857 77.3567C205.456 77.4934 204.164 77.2713 202.981 76.6904C201.801 76.1156 200.824 75.1993 200.05 73.9413ZM201.973 72.7572C202.561 73.7127 203.29 74.3481 204.16 74.6634C205.03 74.9786 205.955 75.0386 206.936 74.8435C207.916 74.6483 208.873 74.2639 209.804 73.6905C210.735 73.117 211.512 72.4345 212.134 71.6429C212.756 70.8513 213.125 69.9943 213.241 69.0721C213.357 68.1499 213.121 67.211 212.532 66.2555C211.944 65.2999 211.212 64.6664 210.336 64.3548C209.46 64.0433 208.529 63.987 207.542 64.1859C206.556 64.3849 205.596 64.7711 204.665 65.3445C203.734 65.918 202.96 66.5986 202.344 67.3865C201.728 68.1744 201.365 69.0276 201.255 69.9461C201.145 70.8646 201.385 71.8016 201.973 72.7572Z" fill="black"/>
<path d="M228.873 103.538L226.79 103.987L225.003 95.6972L227.086 95.2484L228.873 103.538ZM231.439 96.8385L231.969 99.2963L216.723 102.582C216.028 102.732 215.529 102.945 215.226 103.221C214.93 103.502 214.758 103.816 214.709 104.16C214.668 104.511 214.687 104.866 214.764 105.227C214.823 105.498 214.884 105.717 214.95 105.885C215.022 106.051 215.079 106.184 215.123 106.284L213.023 107.259C212.924 107.106 212.812 106.887 212.685 106.602C212.551 106.318 212.435 105.947 212.336 105.489C212.186 104.795 212.189 104.082 212.344 103.351C212.5 102.628 212.837 101.981 213.354 101.412C213.872 100.85 214.596 100.469 215.526 100.268L231.439 96.8385Z" fill="black"/>
<path d="M223.58 113.634L213.745 114.052L213.639 111.54L235.437 110.614L235.544 113.126L227.54 113.466L227.549 113.679C228.409 114.026 229.104 114.573 229.634 115.318C230.17 116.07 230.466 117.088 230.521 118.372C230.568 119.486 230.386 120.472 229.974 121.328C229.57 122.184 228.92 122.862 228.024 123.362C227.136 123.869 225.989 124.152 224.584 124.212L214.196 124.653L214.089 122.141L224.307 121.707C225.606 121.652 226.595 121.272 227.276 120.568C227.965 119.871 228.284 118.93 228.233 117.745C228.198 116.921 227.993 116.191 227.618 115.553C227.243 114.922 226.714 114.432 226.031 114.085C225.348 113.744 224.531 113.594 223.58 113.634Z" fill="black"/>
<path d="M212.862 134.07C213.062 132.506 213.58 131.202 214.416 130.156C215.258 129.118 216.341 128.372 217.666 127.919C218.998 127.474 220.495 127.358 222.158 127.571C223.82 127.783 225.247 128.274 226.437 129.042C227.634 129.818 228.518 130.798 229.09 131.981C229.667 133.172 229.863 134.5 229.675 135.966C229.567 136.811 229.319 137.628 228.932 138.416C228.544 139.204 227.99 139.896 227.27 140.491C226.556 141.087 225.656 141.519 224.569 141.788C223.482 142.057 222.181 142.095 220.666 141.901L219.61 141.765L221.212 129.254L223.367 129.53L222.09 139.505C223.006 139.622 223.847 139.544 224.612 139.27C225.377 139.002 226.01 138.561 226.511 137.945C227.011 137.336 227.319 136.58 227.435 135.679C227.562 134.685 227.425 133.794 227.025 133.006C226.631 132.225 226.068 131.591 225.336 131.103C224.603 130.615 223.79 130.314 222.895 130.2L221.458 130.016C220.232 129.859 219.166 129.937 218.259 130.251C217.359 130.572 216.638 131.085 216.097 131.789C215.563 132.494 215.231 133.35 215.102 134.357C215.018 135.012 215.034 135.616 215.15 136.168C215.271 136.727 215.494 137.225 215.818 137.66C216.148 138.096 216.582 138.456 217.119 138.74L216.134 141.062C215.349 140.704 214.685 140.186 214.142 139.508C213.606 138.83 213.221 138.029 212.989 137.105C212.763 136.181 212.721 135.169 212.862 134.07Z" fill="black"/>
<path d="M212.762 174.543L213.208 172.238C213.608 172.281 214.029 172.258 214.471 172.171C214.916 172.093 215.349 171.898 215.769 171.584C216.189 171.271 216.564 170.788 216.893 170.135C217.344 169.241 217.514 168.392 217.402 167.588C217.294 166.793 216.926 166.238 216.298 165.921C215.74 165.64 215.197 165.621 214.668 165.864C214.14 166.106 213.551 166.605 212.901 167.358L211.274 169.259C210.299 170.405 209.323 171.134 208.347 171.445C207.377 171.76 206.381 171.659 205.36 171.145C204.523 170.723 203.896 170.104 203.48 169.29C203.06 168.482 202.876 167.554 202.927 166.506C202.978 165.458 203.29 164.366 203.862 163.231C204.614 161.74 205.559 160.67 206.698 160.02C207.837 159.369 209.094 159.227 210.468 159.594L209.927 161.993C209.038 161.8 208.255 161.886 207.577 162.252C206.896 162.625 206.324 163.271 205.86 164.19C205.332 165.237 205.135 166.179 205.269 167.018C205.406 167.867 205.789 168.449 206.416 168.766C206.924 169.022 207.438 169.058 207.96 168.876C208.488 168.697 209.023 168.282 209.565 167.633L211.363 165.486C212.355 164.307 213.342 163.572 214.325 163.28C215.31 162.998 216.307 163.11 217.315 163.619C218.14 164.035 218.752 164.634 219.153 165.416C219.551 166.205 219.727 167.094 219.683 168.081C219.635 169.075 219.352 170.086 218.834 171.114C218.105 172.559 217.216 173.535 216.166 174.039C215.113 174.55 213.978 174.718 212.762 174.543Z" fill="black"/>
<path d="M206.289 179.306L198.374 173.453L199.869 171.431L217.411 184.405L215.916 186.426L209.475 181.662L209.348 181.834C209.8 182.645 209.997 183.506 209.941 184.419C209.886 185.341 209.476 186.319 208.712 187.352C208.049 188.249 207.288 188.901 206.43 189.309C205.578 189.721 204.646 189.84 203.635 189.666C202.625 189.503 201.555 189.003 200.424 188.166L192.065 181.984L193.56 179.962L201.782 186.044C202.827 186.816 203.836 187.143 204.808 187.023C205.782 186.912 206.621 186.381 207.327 185.427C207.817 184.765 208.116 184.067 208.225 183.335C208.329 182.608 208.225 181.895 207.912 181.196C207.595 180.502 207.054 179.872 206.289 179.306Z" fill="black"/>
<path d="M185.423 188.173C186.49 187.151 187.669 186.508 188.961 186.244C190.247 185.985 191.553 186.095 192.879 186.576C194.2 187.061 195.445 187.913 196.615 189.134C197.794 190.364 198.601 191.652 199.034 192.998C199.463 194.348 199.52 195.66 199.207 196.935C198.888 198.214 198.196 199.365 197.129 200.387C196.063 201.409 194.886 202.049 193.6 202.308C192.308 202.572 191 202.459 189.674 201.969C188.343 201.484 187.088 200.626 185.909 199.395C184.739 198.175 183.942 196.892 183.519 195.547C183.09 194.206 183.035 192.897 183.354 191.618C183.667 190.343 184.357 189.195 185.423 188.173ZM186.986 189.803C186.176 190.58 185.709 191.426 185.584 192.343C185.459 193.26 185.595 194.177 185.992 195.094C186.39 196.012 186.967 196.866 187.724 197.655C188.48 198.445 189.311 199.06 190.216 199.502C191.121 199.943 192.036 200.123 192.962 200.042C193.888 199.961 194.756 199.533 195.567 198.756C196.377 197.98 196.842 197.131 196.962 196.209C197.082 195.287 196.941 194.365 196.538 193.442C196.136 192.519 195.556 191.663 194.8 190.874C194.043 190.084 193.214 189.471 192.315 189.035C191.415 188.599 190.504 188.424 189.583 188.51C188.662 188.596 187.796 189.027 186.986 189.803Z" fill="black"/>
<path d="M178.223 195.043L191.517 205.808L189.328 207.288L179.382 198.888L179.241 198.984L183.361 211.321L181.137 212.824L171.285 204.412L171.144 204.508L175.205 216.833L173.017 218.312L167.984 201.963L170.032 200.579L180.037 208.99L180.249 208.847L176.175 196.427L178.223 195.043Z" fill="black"/>
<path d="M167.105 226.518L160.84 212.14L163.092 211.122L169.745 225.324L167.105 226.518ZM159.368 205.884C159.847 205.668 160.335 205.653 160.833 205.841C161.331 206.029 161.689 206.363 161.905 206.842C162.122 207.321 162.136 207.809 161.948 208.307C161.76 208.805 161.427 209.162 160.948 209.379C160.469 209.595 159.98 209.61 159.482 209.422C158.984 209.234 158.627 208.9 158.41 208.421C158.267 208.104 158.216 207.777 158.258 207.438C158.293 207.102 158.407 206.794 158.599 206.512C158.788 206.24 159.044 206.03 159.368 205.884Z" fill="black"/>
<path d="M141.518 213.822C143.061 213.691 144.536 213.857 145.945 214.322C147.346 214.787 148.606 215.489 149.727 216.427C150.841 217.373 151.749 218.497 152.452 219.798C153.147 221.101 153.557 222.527 153.682 224.077C153.807 225.628 153.636 227.104 153.171 228.505C152.699 229.906 151.993 231.164 151.055 232.277C150.116 233.398 148.996 234.306 147.694 235.001C146.392 235.696 144.969 236.11 143.426 236.241C141.877 236.373 140.401 236.206 139 235.741C137.592 235.276 136.335 234.571 135.228 233.624C134.114 232.686 133.21 231.565 132.514 230.263C131.819 228.96 131.402 227.535 131.263 225.986C131.124 224.436 131.287 222.961 131.752 221.56C132.218 220.159 132.919 218.898 133.857 217.778C134.796 216.664 135.92 215.76 137.23 215.064C138.539 214.368 139.968 213.954 141.518 213.822Z" fill="black"/>
</svg>
